{
  "images": [
    {"uri": "data:image/png;base64,"},
    {"uri": "data:image/png;base64,"},
    {"uri": "data:image/png;base64,"},
    {"uri": "data:image/png;base64,"},
    {"uri": "data:image/png;base64,"},
    {"uri": "data:image/png;base64,"},
    {"uri": "data:image/png;base64,"},
    {"uri": "data:image/png;base64,"}
  ],
  "accessors": [
    {
      "componentType": 5126,
      "min": [
        -14,
        -16,
        -14
      ],
      "byteOffset": 0,
      "bufferView": 0,
      "max": [
        14,
        16,
        14
      ],
      "count": 11616,
      "type": "VEC3"
    },
    {
      "componentType": 5126,
      "byteOffset": 0,
      "bufferView": 1,
      "count": 11616,
      "type": "VEC3"
    },
    {
      "componentType": 5126,
      "byteOffset": 0,
      "bufferView": 2,
      "count": 11616,
      "type": "VEC2"
    },
    {
      "componentType": 5126,
      "byteOffset": 0,
      "bufferView": 2,
      "count": 11616,
      "type": "VEC2"
    },
    {
      "componentType": 5126,
      "min": [
        -3,
        -3,
        -3
      ],
      "byteOffset": 0,
      "bufferView": 3,
      "max": [
        3,
        3,
        3
      ],
      "count": 396,
      "type": "VEC3"
    },
    {
      "componentType": 5126,
      "byteOffset": 0,
      "bufferView": 4,
      "count": 396,
      "type": "VEC3"
    },
    {
      "componentType": 5126,
      "byteOffset": 0,
      "bufferView": 5,
      "count": 396,
      "type": "VEC2"
    },
    {
      "componentType": 5126,
      "byteOffset": 0,
      "bufferView": 5,
      "count": 396,
      "type": "VEC2"
    },
    {
      "componentType": 5126,
      "min": [
        -16,
        -9,
        -6
      ],
      "byteOffset": 0,
      "bufferView": 6,
      "max": [
        16,
        9,
        8
      ],
      "count": 432,
      "type": "VEC3"
    },
    {
      "componentType": 5126,
      "byteOffset": 0,
      "bufferView": 7,
      "count": 432,
      "type": "VEC3"
    },
    {
      "componentType": 5126,
      "byteOffset": 0,
      "bufferView": 8,
      "count": 432,
      "type": "VEC2"
    },
    {
      "componentType": 5126,
      "byteOffset": 0,
      "bufferView": 8,
      "count": 432,
      "type": "VEC2"
    },
    {
      "componentType": 5126,
      "min": [
        -16,
        -9,
        -6
      ],
      "byteOffset": 0,
      "bufferView": 9,
      "max": [
        16,
        9,
        8
      ],
      "count": 432,
      "type": "VEC3"
    },
    {
      "componentType": 5126,
      "byteOffset": 0,
      "bufferView": 10,
      "count": 432,
      "type": "VEC3"
    },
    {
      "componentType": 5126,
      "byteOffset": 0,
      "bufferView": 11,
      "count": 432,
      "type": "VEC2"
    },
    {
      "componentType": 5126,
      "byteOffset": 0,
      "bufferView": 11,
      "count": 432,
      "type": "VEC2"
    },
    {
      "componentType": 5126,
      "min": [0],
      "byteOffset": 0,
      "bufferView": 12,
      "max": [3.9166667461395264],
      "count": 95,
      "type": "SCALAR"
    },
    {
      "componentType": 5126,
      "byteOffset": 0,
      "bufferView": 13,
      "count": 95,
      "type": "VEC3"
    },
    {
      "componentType": 5126,
      "byteOffset": 0,
      "bufferView": 14,
      "count": 95,
      "type": "VEC4"
    },
    {
      "componentType": 5126,
      "byteOffset": 0,
      "bufferView": 15,
      "count": 95,
      "type": "VEC3"
    },
    {
      "componentType": 5126,
      "byteOffset": 0,
      "bufferView": 16,
      "count": 95,
      "type": "VEC3"
    },
    {
      "componentType": 5126,
      "byteOffset": 0,
      "bufferView": 17,
      "count": 95,
      "type": "VEC4"
    },
    {
      "componentType": 5126,
      "byteOffset": 0,
      "bufferView": 18,
      "count": 95,
      "type": "VEC3"
    },
    {
      "componentType": 5126,
      "min": [0],
      "byteOffset": 0,
      "bufferView": 19,
      "max": [3.9166667461395264],
      "count": 95,
      "type": "SCALAR"
    },
    {
      "componentType": 5126,
      "byteOffset": 0,
      "bufferView": 20,
      "count": 95,
      "type": "VEC3"
    },
    {
      "componentType": 5126,
      "byteOffset": 0,
      "bufferView": 21,
      "count": 95,
      "type": "VEC4"
    },
    {
      "componentType": 5126,
      "byteOffset": 0,
      "bufferView": 22,
      "count": 95,
      "type": "VEC3"
    },
    {
      "componentType": 5126,
      "byteOffset": 0,
      "bufferView": 23,
      "count": 95,
      "type": "VEC3"
    },
    {
      "componentType": 5126,
      "byteOffset": 0,
      "bufferView": 24,
      "count": 95,
      "type": "VEC4"
    },
    {
      "componentType": 5126,
      "byteOffset": 0,
      "bufferView": 25,
      "count": 95,
      "type": "VEC3"
    },
    {
      "componentType": 5126,
      "min": [0],
      "byteOffset": 0,
      "bufferView": 26,
      "max": [3.9166667461395264],
      "count": 95,
      "type": "SCALAR"
    },
    {
      "componentType": 5126,
      "byteOffset": 0,
      "bufferView": 27,
      "count": 95,
      "type": "VEC3"
    },
    {
      "componentType": 5126,
      "byteOffset": 0,
      "bufferView": 28,
      "count": 95,
      "type": "VEC4"
    },
    {
      "componentType": 5126,
      "byteOffset": 0,
      "bufferView": 29,
      "count": 95,
      "type": "VEC3"
    },
    {
      "componentType": 5126,
      "byteOffset": 0,
      "bufferView": 30,
      "count": 95,
      "type": "VEC3"
    },
    {
      "componentType": 5126,
      "byteOffset": 0,
      "bufferView": 31,
      "count": 95,
      "type": "VEC4"
    },
    {
      "componentType": 5126,
      "byteOffset": 0,
      "bufferView": 32,
      "count": 95,
      "type": "VEC3"
    }
  ],
  "textures": [
    {
      "source": 0,
      "sampler": 0
    },
    {
      "source": 1,
      "sampler": 0
    },
    {
      "source": 2,
      "sampler": 0
    },
    {
      "source": 3,
      "sampler": 0
    },
    {
      "source": 4,
      "sampler": 0
    },
    {
      "source": 5,
      "sampler": 0
    },
    {
      "source": 6,
      "sampler": 0
    },
    {
      "source": 7,
      "sampler": 0
    }
  ],
  "buffers": [
    {
      "byteLength": 139392,
      "uri": "data:application/octet-stream;base64,"
    },
    {
      "byteLength": 139392,
      "uri": "data:application/octet-stream;base64,"
    },
    {
      "byteLength": 92928,
      "uri": "data:application/octet-stream;base64,"
    },
    {
      "byteLength": 4752,
      "uri": "data:application/octet-stream;base64,"
    },
    {
      "byteLength": 4752,
      "uri": "data:application/octet-stream;base64,"
    },
    {
      "byteLength": 3168,
      "uri": "data:application/octet-stream;base64,"
    },
    {
      "byteLength": 5184,
      "uri": "data:application/octet-stream;base64,"
    },
    {
      "byteLength": 5184,
      "uri": "data:application/octet-stream;base64,"
    },
    {
      "byteLength": 3456,
      "uri": "data:application/octet-stream;base64,"
    },
    {
      "byteLength": 5184,
      "uri": "data:application/octet-stream;base64,"
    },
    {
      "byteLength": 5184,
      "uri": "data:application/octet-stream;base64,"
    },
    {
      "byteLength": 3456,
      "uri": "data:application/octet-stream;base64,"
    },
    {
      "byteLength": 380,
      "uri": "data:application/octet-stream;base64,"
    },
    {
      "byteLength": 1140,
      "uri": "data:application/octet-stream;base64,"
    },
    {
      "byteLength": 1520,
      "uri": "data:application/octet-stream;base64,"
    },
    {
      "byteLength": 1140,
      "uri": "data:application/octet-stream;base64,"
    },
    {
      "byteLength": 1140,
      "uri": "data:application/octet-stream;base64,"
    },
    {
      "byteLength": 1520,
      "uri": "data:application/octet-stream;base64,"
    },
    {
      "byteLength": 1140,
      "uri": "data:application/octet-stream;base64,"
    },
    {
      "byteLength": 380,
      "uri": "data:application/octet-stream;base64,"
    },
    {
      "byteLength": 1140,
      "uri": "data:application/octet-stream;base64,"
    },
    {
      "byteLength": 1520,
      "uri": "data:application/octet-stream;base64,"
    },
    {
      "byteLength": 1140,
      "uri": "data:application/octet-stream;base64,"
    },
    {
      "byteLength": 1140,
      "uri": "data:application/octet-stream;base64,"
    },
    {
      "byteLength": 1520,
      "uri": "data:application/octet-stream;base64,"
    },
    {
      "byteLength": 1140,
      "uri": "data:application/octet-stream;base64,"
    },
    {
      "byteLength": 380,
      "uri": "data:application/octet-stream;base64,"
    },
    {
      "byteLength": 1140,
      "uri": "data:application/octet-stream;base64,"
    },
    {
      "byteLength": 1520,
      "uri": "data:application/octet-stream;base64,"
    },
    {
      "byteLength": 1140,
      "uri": "data:application/octet-stream;base64,"
    },
    {
      "byteLength": 1140,
      "uri": "data:application/octet-stream;base64,"
    },
    {
      "byteLength": 1520,
      "uri": "data:application/octet-stream;base64,"
    },
    {
      "byteLength": 1140,
      "uri": "data:application/octet-stream;base64,"
    }
  ],
  "bufferViews": [
    {
      "byteOffset": 0,
      "byteLength": 139392,
      "buffer": 0,
      "byteStride": 12,
      "target": 34962
    },
    {
      "byteOffset": 0,
      "byteLength": 139392,
      "buffer": 1,
      "byteStride": 12,
      "target": 34962
    },
    {
      "byteOffset": 0,
      "byteLength": 92928,
      "buffer": 2,
      "byteStride": 8,
      "target": 34962
    },
    {
      "byteOffset": 0,
      "byteLength": 4752,
      "buffer": 3,
      "byteStride": 12,
      "target": 34962
    },
    {
      "byteOffset": 0,
      "byteLength": 4752,
      "buffer": 4,
      "byteStride": 12,
      "target": 34962
    },
    {
      "byteOffset": 0,
      "byteLength": 3168,
      "buffer": 5,
      "byteStride": 8,
      "target": 34962
    },
    {
      "byteOffset": 0,
      "byteLength": 5184,
      "buffer": 6,
      "byteStride": 12,
      "target": 34962
    },
    {
      "byteOffset": 0,
      "byteLength": 5184,
      "buffer": 7,
      "byteStride": 12,
      "target": 34962
    },
    {
      "byteOffset": 0,
      "byteLength": 3456,
      "buffer": 8,
      "byteStride": 8,
      "target": 34962
    },
    {
      "byteOffset": 0,
      "byteLength": 5184,
      "buffer": 9,
      "byteStride": 12,
      "target": 34962
    },
    {
      "byteOffset": 0,
      "byteLength": 5184,
      "buffer": 10,
      "byteStride": 12,
      "target": 34962
    },
    {
      "byteOffset": 0,
      "byteLength": 3456,
      "buffer": 11,
      "byteStride": 8,
      "target": 34962
    },
    {
      "byteOffset": 0,
      "byteLength": 380,
      "buffer": 12,
      "byteStride": 4
    },
    {
      "byteOffset": 0,
      "byteLength": 1140,
      "buffer": 13,
      "byteStride": 12
    },
    {
      "byteOffset": 0,
      "byteLength": 1520,
      "buffer": 14,
      "byteStride": 16
    },
    {
      "byteOffset": 0,
      "byteLength": 1140,
      "buffer": 15,
      "byteStride": 12
    },
    {
      "byteOffset": 0,
      "byteLength": 1140,
      "buffer": 16,
      "byteStride": 12
    },
    {
      "byteOffset": 0,
      "byteLength": 1520,
      "buffer": 17,
      "byteStride": 16
    },
    {
      "byteOffset": 0,
      "byteLength": 1140,
      "buffer": 18,
      "byteStride": 12
    },
    {
      "byteOffset": 0,
      "byteLength": 380,
      "buffer": 19,
      "byteStride": 4
    },
    {
      "byteOffset": 0,
      "byteLength": 1140,
      "buffer": 20,
      "byteStride": 12
    },
    {
      "byteOffset": 0,
      "byteLength": 1520,
      "buffer": 21,
      "byteStride": 16
    },
    {
      "byteOffset": 0,
      "byteLength": 1140,
      "buffer": 22,
      "byteStride": 12
    },
    {
      "byteOffset": 0,
      "byteLength": 1140,
      "buffer": 23,
      "byteStride": 12
    },
    {
      "byteOffset": 0,
      "byteLength": 1520,
      "buffer": 24,
      "byteStride": 16
    },
    {
      "byteOffset": 0,
      "byteLength": 1140,
      "buffer": 25,
      "byteStride": 12
    },
    {
      "byteOffset": 0,
      "byteLength": 380,
      "buffer": 26,
      "byteStride": 4
    },
    {
      "byteOffset": 0,
      "byteLength": 1140,
      "buffer": 27,
      "byteStride": 12
    },
    {
      "byteOffset": 0,
      "byteLength": 1520,
      "buffer": 28,
      "byteStride": 16
    },
    {
      "byteOffset": 0,
      "byteLength": 1140,
      "buffer": 29,
      "byteStride": 12
    },
    {
      "byteOffset": 0,
      "byteLength": 1140,
      "buffer": 30,
      "byteStride": 12
    },
    {
      "byteOffset": 0,
      "byteLength": 1520,
      "buffer": 31,
      "byteStride": 16
    },
    {
      "byteOffset": 0,
      "byteLength": 1140,
      "buffer": 32,
      "byteStride": 12
    }
  ],
  "samplers": [{
    "minFilter": 9728,
    "wrapT": 33071,
    "wrapS": 33071,
    "magFilter": 9728
  }],
  "scene": 0,
  "nodes": [
    {
      "children": [
        1,
        2
      ],
      "rotation": [
        0,
        -1,
        0,
        -4.371138828673793E-8
      ],
      "translation": [
        0,
        0,
        0
      ],
      "name": "Root-Global",
      "scale": [
        -1,
        1,
        1
      ]
    },
    {
      "rotation": [
        0,
        0,
        0,
        1
      ],
      "translation": [
        0,
        0,
        0
      ],
      "name": "Root-Local",
      "scale": [
        1,
        1,
        1
      ]
    },
    {
      "children": [
        3,
        4,
        6,
        8
      ],
      "rotation": [
        0,
        0,
        0,
        1
      ],
      "translation": [
        0,
        0,
        0
      ],
      "name": "lamp-Global",
      "scale": [
        1,
        1,
        1
      ]
    },
    {
      "rotation": [
        0,
        0,
        0,
        1
      ],
      "translation": [
        0,
        16,
        0
      ],
      "name": "lamp-Local",
      "scale": [
        1,
        1,
        1
      ],
      "mesh": 0
    },
    {
      "children": [5],
      "rotation": [
        0,
        0,
        0,
        1
      ],
      "translation": [
        0,
        0,
        0
      ],
      "name": "imd-Global",
      "scale": [
        1,
        1,
        1
      ]
    },
    {
      "rotation": [
        0,
        0,
        0,
        1
      ],
      "translation": [
        0,
        16,
        0
      ],
      "name": "imd-Local",
      "scale": [
        1,
        1,
        1
      ],
      "mesh": 1
    },
    {
      "children": [7],
      "rotation": [
        0,
        0,
        0,
        1
      ],
      "translation": [
        0,
        0,
        0
      ],
      "name": "boul-Global",
      "scale": [
        1,
        1,
        1
      ]
    },
    {
      "rotation": [
        0,
        0,
        0,
        1
      ],
      "translation": [
        0,
        16,
        0
      ],
      "name": "boul-Local",
      "scale": [
        1,
        1,
        1
      ],
      "mesh": 2
    },
    {
      "children": [9],
      "rotation": [
        0,
        0,
        0,
        1
      ],
      "translation": [
        0,
        0,
        0
      ],
      "name": "piwpiw-Global",
      "scale": [
        1,
        1,
        1
      ]
    },
    {
      "rotation": [
        0,
        0,
        0,
        1
      ],
      "translation": [
        0,
        16,
        0
      ],
      "name": "piwpiw-Local",
      "scale": [
        1,
        1,
        1
      ],
      "mesh": 3
    }
  ],
  "materials": [
    {
      "name": "lamp-Material",
      "emissiveTexture": {
        "index": 1,
        "texCoord": 1
      },
      "pbrMetallicRoughness": {
        "baseColorTexture": {"index": 0},
        "metallicFactor": 0,
        "roughnessFactor": 1
      },
      "emissiveFactor": [
        1,
        1,
        1
      ]
    },
    {
      "name": "55-Material",
      "emissiveTexture": {
        "index": 3,
        "texCoord": 1
      },
      "pbrMetallicRoughness": {
        "baseColorTexture": {"index": 2},
        "metallicFactor": 0,
        "roughnessFactor": 1
      },
      "emissiveFactor": [
        1,
        1,
        1
      ]
    },
    {
      "name": "88-Material",
      "emissiveTexture": {
        "index": 5,
        "texCoord": 1
      },
      "pbrMetallicRoughness": {
        "baseColorTexture": {"index": 4},
        "metallicFactor": 0,
        "roughnessFactor": 1
      },
      "emissiveFactor": [
        1,
        1,
        1
      ]
    },
    {
      "name": "88-Material",
      "emissiveTexture": {
        "index": 7,
        "texCoord": 1
      },
      "pbrMetallicRoughness": {
        "baseColorTexture": {"index": 6},
        "metallicFactor": 0,
        "roughnessFactor": 1
      },
      "emissiveFactor": [
        1,
        1,
        1
      ]
    }
  ],
  "animations": [{
    "channels": [
      {
        "sampler": 0,
        "target": {
          "node": 0,
          "path": "translation"
        }
      },
      {
        "sampler": 1,
        "target": {
          "node": 0,
          "path": "rotation"
        }
      },
      {
        "sampler": 2,
        "target": {
          "node": 0,
          "path": "scale"
        }
      },
      {
        "sampler": 3,
        "target": {
          "node": 1,
          "path": "translation"
        }
      },
      {
        "sampler": 4,
        "target": {
          "node": 1,
          "path": "rotation"
        }
      },
      {
        "sampler": 5,
        "target": {
          "node": 1,
          "path": "scale"
        }
      },
      {
        "sampler": 6,
        "target": {
          "node": 2,
          "path": "translation"
        }
      },
      {
        "sampler": 7,
        "target": {
          "node": 2,
          "path": "rotation"
        }
      },
      {
        "sampler": 8,
        "target": {
          "node": 2,
          "path": "scale"
        }
      },
      {
        "sampler": 9,
        "target": {
          "node": 3,
          "path": "translation"
        }
      },
      {
        "sampler": 10,
        "target": {
          "node": 3,
          "path": "rotation"
        }
      },
      {
        "sampler": 11,
        "target": {
          "node": 3,
          "path": "scale"
        }
      },
      {
        "sampler": 12,
        "target": {
          "node": 8,
          "path": "translation"
        }
      },
      {
        "sampler": 13,
        "target": {
          "node": 8,
          "path": "rotation"
        }
      },
      {
        "sampler": 14,
        "target": {
          "node": 8,
          "path": "scale"
        }
      },
      {
        "sampler": 15,
        "target": {
          "node": 9,
          "path": "translation"
        }
      },
      {
        "sampler": 16,
        "target": {
          "node": 9,
          "path": "rotation"
        }
      },
      {
        "sampler": 17,
        "target": {
          "node": 9,
          "path": "scale"
        }
      }
    ],
    "name": "Idle",
    "samplers": [
      {
        "output": 17,
        "input": 16,
        "interpolation": "LINEAR"
      },
      {
        "output": 18,
        "input": 16,
        "interpolation": "LINEAR"
      },
      {
        "output": 19,
        "input": 16,
        "interpolation": "LINEAR"
      },
      {
        "output": 20,
        "input": 16,
        "interpolation": "LINEAR"
      },
      {
        "output": 21,
        "input": 16,
        "interpolation": "LINEAR"
      },
      {
        "output": 22,
        "input": 16,
        "interpolation": "LINEAR"
      },
      {
        "output": 24,
        "input": 23,
        "interpolation": "LINEAR"
      },
      {
        "output": 25,
        "input": 23,
        "interpolation": "LINEAR"
      },
      {
        "output": 26,
        "input": 23,
        "interpolation": "LINEAR"
      },
      {
        "output": 27,
        "input": 23,
        "interpolation": "LINEAR"
      },
      {
        "output": 28,
        "input": 23,
        "interpolation": "LINEAR"
      },
      {
        "output": 29,
        "input": 23,
        "interpolation": "LINEAR"
      },
      {
        "output": 31,
        "input": 30,
        "interpolation": "LINEAR"
      },
      {
        "output": 32,
        "input": 30,
        "interpolation": "LINEAR"
      },
      {
        "output": 33,
        "input": 30,
        "interpolation": "LINEAR"
      },
      {
        "output": 34,
        "input": 30,
        "interpolation": "LINEAR"
      },
      {
        "output": 35,
        "input": 30,
        "interpolation": "LINEAR"
      },
      {
        "output": 36,
        "input": 30,
        "interpolation": "LINEAR"
      }
    ]
  }],
  "scenes": [{"nodes": [0]}],
  "asset": {
    "generator": "VoxEdit Beta e2de1723",
    "version": "2.0"
  },
  "meshes": [
    {
      "primitives": [{
        "mode": 4,
        "material": 0,
        "attributes": {
          "POSITION": 0,
          "TEXCOORD_1": 3,
          "TEXCOORD_0": 2,
          "NORMAL": 1
        }
      }],
      "name": "lamp-Mesh"
    },
    {
      "primitives": [{
        "mode": 4,
        "material": 1,
        "attributes": {
          "POSITION": 4,
          "TEXCOORD_1": 7,
          "TEXCOORD_0": 6,
          "NORMAL": 5
        }
      }],
      "name": "55-Mesh"
    },
    {
      "primitives": [{
        "mode": 4,
        "material": 2,
        "attributes": {
          "POSITION": 8,
          "TEXCOORD_1": 11,
          "TEXCOORD_0": 10,
          "NORMAL": 9
        }
      }],
      "name": "88-Mesh"
    },
    {
      "primitives": [{
        "mode": 4,
        "material": 3,
        "attributes": {
          "POSITION": 12,
          "TEXCOORD_1": 15,
          "TEXCOORD_0": 14,
          "NORMAL": 13
        }
      }],
      "name": "88-Mesh"
    }
  ]
}